<?xml version="1.0" encoding="UTF-8" standalone="no"?>
<svg
   xmlns:dc="http://purl.org/dc/elements/1.1/"
   xmlns:cc="http://creativecommons.org/ns#"
   xmlns:rdf="http://www.w3.org/1999/02/22-rdf-syntax-ns#"
   xmlns:svg="http://www.w3.org/2000/svg"
   xmlns="http://www.w3.org/2000/svg"
   width="51.880001mm"
   height="51.880001mm"
   viewBox="0 0 51.879999 51.879998"
   version="1.1"
   id="svg4565">
  <title
     id="title815">U+1448C ANATOLIAN HIEROGLYPH A115A from Noto Sans font</title>
  <defs
     id="defs4559" />
  <metadata
     id="metadata4562">
    <rdf:RDF>
      <cc:Work
         rdf:about="">
        <dc:format>image/svg+xml</dc:format>
        <dc:type
           rdf:resource="http://purl.org/dc/dcmitype/StillImage" />
        <dc:title>U+1448C ANATOLIAN HIEROGLYPH A115A from Noto Sans font</dc:title>
        <cc:license
           rdf:resource="http://scripts.sil.org/OFL" />
      </cc:Work>
      <cc:License
         rdf:about="http://scripts.sil.org/OFL">
        <cc:permits
           rdf:resource="http://scripts.sil.org/pub/OFL/Reproduction" />
        <cc:permits
           rdf:resource="http://scripts.sil.org/pub/OFL/Distribution" />
        <cc:permits
           rdf:resource="http://scripts.sil.org/pub/OFL/Embedding" />
        <cc:permits
           rdf:resource="http://scripts.sil.org/pub/OFL/DerivativeWorks" />
        <cc:requires
           rdf:resource="http://scripts.sil.org/pub/OFL/Notice" />
        <cc:requires
           rdf:resource="http://scripts.sil.org/pub/OFL/Attribution" />
        <cc:requires
           rdf:resource="http://scripts.sil.org/pub/OFL/ShareAlike" />
        <cc:requires
           rdf:resource="http://scripts.sil.org/pub/OFL/DerivativeRenaming" />
        <cc:requires
           rdf:resource="http://scripts.sil.org/pub/OFL/BundlingWhenSelling" />
      </cc:License>
    </rdf:RDF>
  </metadata>
  <g
     id="layer1"
     transform="matrix(1.1970749,0,0,1.1970749,-89.370004,-96.553259)">
    <g
       id="text5112"
       style="font-style:normal;font-weight:normal;font-size:10.58333302px;line-height:1.25;font-family:sans-serif;letter-spacing:0px;word-spacing:0px;fill:#000000;fill-opacity:1;stroke:none;stroke-width:0.26458332">
      <path
         id="path815"
         style="font-size:42.33333206px;stroke-width:0.26458332"
         d="m 109.57681,120.95381 q -1.43934,0 -1.905,-0.508 -0.46567,-0.508 -0.46567,-1.18533 0,-0.254 0.254,-0.67733 0.29633,-0.46567 0.55033,-0.93134 0.29634,-0.508 0.29634,-0.889 0,-0.59266 -0.93134,-0.59266 -0.635,0 -1.56633,0.16933 -0.889,0.127 -1.69333,0.127 -1.10067,0 -1.905,-0.97367 -0.762,-0.97366 -1.10067,-2.49766 -1.05833,0.42333 -3.217334,0.84666 -2.159,0.42334 -4.487334,0.42334 -0.635,0 -1.524,-0.127 -0.846666,-0.16934 -1.523999,-0.16934 -0.931334,0 -1.439334,0.635 -0.465666,0.59267 -0.804333,1.524 -0.296333,0.889 -0.677333,1.82034 -0.381,0.93133 -1.100667,1.56633 -0.677333,0.59267 -1.947333,0.59267 h -2.794 q -0.931334,0 -1.566334,-0.59267 -0.592666,-0.635 -0.592666,-1.18533 0,-0.93134 0.677333,-1.48167 0.677333,-0.59267 1.566333,-1.016 0.931334,-0.46567 1.608667,-0.97367 0.169333,-1.31233 0.719667,-3.048 0.592666,-1.778 2.370666,-3.25966 0.550334,-0.46567 1.016,-0.55034 0.465667,-0.127 0.465667,-0.93133 0,-0.16933 -0.127,-0.42333 -0.08467,-0.254 -0.296333,-0.254 -0.762,0 -1.481667,0.42333 -0.677333,0.381 -1.439333,0.80433 -0.719667,0.381 -1.524,0.381 -0.931334,0 -1.820334,-0.59266 -0.846666,-0.59267 -1.396999,-1.48167 -0.550334,-0.889 -0.550334,-1.778 0,-1.82033 1.143,-3.25967 1.143,-1.481662 2.667,-2.582329 -0.338667,-1.058333 -0.550333,-2.582333 -0.169334,-1.524 -0.296334,-3.048 -0.08467,-1.524 -0.08467,-2.582333 0,-1.481667 0.254,-2.963333 0.254,-1.481667 0.889,-2.455334 0.635,-0.973666 1.735666,-0.973666 0.931334,0 1.439334,0.846666 0.550333,0.846667 0.762,1.989667 0.211666,1.100667 0.211666,1.905 0,1.947333 -0.465666,3.81 -0.465667,1.862666 -0.465667,3.81 0,0.889 0.169333,1.27 0.169334,0.381 0.677334,0.381 1.016,0 1.651,-1.016 0.635,-1.058334 1.524,-2.751667 0.338666,-0.635 0.931333,-1.862667 0.635,-1.27 1.524,-2.624666 0.889,-1.354667 2.074333,-2.286 1.227667,-0.931333 2.751667,-0.931333 0.592666,0 1.143,0.762 0.550333,0.719666 0.550333,1.862666 0,1.27 -0.804333,2.667 -0.804334,1.397 -1.989667,2.794 -1.185333,1.397 -2.370667,2.709333 -1.185333,1.312334 -1.989666,2.413 -0.804334,1.100669 -0.804334,1.947329 0,0.55034 0.381,0.80434 0.423334,0.21166 0.846667,0.21166 4.318,0 7.366005,-0.0847 3.09033,-0.127 5.207,-0.46567 0.71967,-0.42333 1.60867,-0.71967 0.93133,-0.29633 2.11666,-0.29633 1.778,0 2.921,1.35467 1.18534,1.31233 1.18534,3.429 0,1.35466 -0.42334,1.905 -0.42333,0.508 -1.05833,0.635 -0.59267,0.0847 -1.18533,0.127 -0.59267,0.0423 -1.016,0.381 -0.42334,0.33866 -0.42334,1.397 0,0.889 0.635,1.397 0.635,0.508 1.22767,0.762 1.73567,0.80433 2.11667,1.35466 0.42333,0.508 0.42333,1.22767 0,1.05833 -0.42333,2.159 -0.42334,1.05833 -1.05834,1.98967 -0.635,0.889 -1.31233,1.43933 -0.635,0.55033 -1.05833,0.55033 z m 0.0847,-1.397 q 0.29634,0 0.84667,-0.71966 0.55033,-0.762 0.97367,-1.778 0.46566,-1.016 0.46566,-1.905 0,-0.71967 -0.381,-1.05834 -0.33866,-0.33866 -1.31233,-0.762 -1.05833,-0.508 -1.778,-1.43933 -0.71967,-0.93133 -0.71967,-2.07433 0,-1.18534 0.381,-1.69334 0.42334,-0.55033 1.016,-0.71966 0.635,-0.21167 1.22767,-0.29634 0.635,-0.0847 1.016,-0.33866 0.42333,-0.29634 0.42333,-1.016 0,-1.524 -0.84666,-2.58234 -0.80434,-1.05833 -2.11667,-1.05833 -1.10067,0 -1.73567,0.29633 -0.59266,0.254 -1.35466,0.67734 -1.48167,0.254 -3.64067,0.381 -2.11667,0.127 -4.572001,0.16933 -2.455333,0.0423 -4.953,0.0423 -1.143,0 -1.778,-0.508 -0.592666,-0.508 -0.592666,-1.82033 0,-1.05833 0.804333,-2.243665 0.804333,-1.227667 1.989666,-2.54 1.185334,-1.312334 2.328334,-2.624667 1.185333,-1.354667 1.989666,-2.624667 0.804334,-1.27 0.804334,-2.370666 0,-0.338667 -0.127,-0.889 -0.127,-0.550333 -0.762,-0.550333 -0.804334,0 -1.651,0.804333 -0.846667,0.804333 -1.693334,2.074333 -0.846666,1.227667 -1.608666,2.582333 -0.719667,1.312334 -1.312333,2.413 -0.592667,1.058334 -0.973667,1.862667 -0.381,0.762 -1.016,1.185333 -0.592667,0.423334 -1.820333,0.423334 -0.973667,0 -1.439334,-0.635 -0.423333,-0.677334 -0.423333,-1.524 0,-1.989667 0.381,-3.894667 0.423333,-1.947333 0.423333,-3.894667 0,-0.719666 -0.08467,-1.650999 -0.04233,-0.931334 -0.296334,-1.608667 -0.211666,-0.677333 -0.677333,-0.677333 -0.677333,0 -1.058333,0.889 -0.338667,0.846666 -0.508,2.032 -0.127,1.142999 -0.127,2.031999 0,1.143 0.04233,2.667 0.04233,1.524 0.169333,3.005667 0.127,1.481667 0.423334,2.497667 0.127,0.254 0.127,0.465666 0,0.169334 -0.127,0.296334 -0.08467,0.08467 -0.211667,0.211666 -0.677333,0.550333 -1.439333,1.227669 -0.762,0.67733 -1.312334,1.56633 -0.508,0.889 -0.508,2.20133 0,0.80434 0.677334,1.73567 0.677333,0.93133 1.735666,0.93133 0.804334,0 1.524,-0.381 0.719667,-0.42333 1.439334,-0.80433 0.762,-0.42333 1.651,-0.42333 0.719666,0 1.185333,0.508 0.465667,0.508 0.465667,1.22766 0,0.97367 -0.381,1.397 -0.338667,0.42334 -0.889,0.67734 -0.508,0.254 -1.058334,0.80433 -1.185333,1.18533 -1.651,2.49767 -0.423333,1.31233 -0.592666,2.667 -0.08467,0.635 -0.592667,1.016 -0.508,0.381 -1.185333,0.71966 -0.677334,0.29634 -1.27,0.67734 -0.550334,0.381 -0.804334,1.05833 0.211667,0.21167 0.423334,0.33867 0.254,0.127 1.058333,0.127 h 2.54 q 0.677333,0 1.058333,-0.59267 0.423334,-0.635 0.762,-1.56633 0.338667,-0.93134 0.762,-1.86267 0.423334,-0.93133 1.100667,-1.524 0.677333,-0.635 1.778,-0.635 0.592667,0 1.397,0.21167 0.804333,0.21166 1.481666,0.21166 2.413,0 4.572,-0.42333 2.159,-0.46567 3.217335,-0.889 -0.0423,-0.21167 -0.0423,-0.42333 0,-0.254 0,-0.46567 l 1.18534,0.254 q 0,1.86267 0.55033,2.96333 0.55033,1.10067 1.905,1.10067 0.33867,0 1.10067,-0.0847 0.762,-0.0847 1.48166,-0.127 0.71967,-0.0847 0.93134,-0.0847 0.762,0 1.05833,0.42333 0.33867,0.381 0.33867,0.84667 0,1.05833 -0.508,1.69333 -0.46567,0.635 -0.46567,0.84667 0,0.59266 0.29633,0.71966 0.33867,0.127 0.889,0.127 z m -24.722664,-17.272 q -0.465667,0 -0.846667,-0.33866 -0.338666,-0.381 -0.338666,-0.84667 0,-0.508 0.338666,-0.84667 0.381,-0.380996 0.846667,-0.380996 0.508,0 0.846667,0.380996 0.381,0.33867 0.381,0.84667 0,0.46567 -0.381,0.84667 -0.338667,0.33866 -0.846667,0.33866 z" />
    </g>
  </g>
</svg>
