<?xml version="1.0" encoding="utf-8"?><svg version="1.1" id="Layer_1" xmlns="http://www.w3.org/2000/svg" xmlns:xlink="http://www.w3.org/1999/xlink" x="0px" y="0px" viewBox="0 0 122.88 91.26" style="enable-background:new 0 0 122.88 91.26" xml:space="preserve"><style type="text/css">.st0{fill-rule:evenodd;clip-rule:evenodd;}</style><g><path class="st0" d="M14.85,45.46h6.65l2.39,12.65l3.5-12.65h6.6l3.53,12.67l2.41-12.67h6.62l-5,22.68h-6.87L30.7,53.86 l-3.95,14.28h-6.86L14.85,45.46L14.85,45.46z M8.32,0h106.24c4.58,0,8.32,3.74,8.32,8.32v74.62c0,4.57-3.74,8.32-8.32,8.32H8.32 C3.74,91.26,0,87.51,0,82.94V8.32C0,3.74,3.74,0,8.32,0L8.32,0z M117.97,23.29H5.29v60.46c0,0.64,0.25,1.2,0.67,1.63 c0.42,0.42,0.99,0.67,1.63,0.67h108.04c0.64,0,1.2-0.25,1.63-0.67c0.43-0.43,0.67-0.99,0.67-1.63V23.29H117.97L117.97,23.29z M106.64,9.35c2.27,0,4.11,1.84,4.11,4.11s-1.84,4.11-4.11,4.11c-2.27,0-4.11-1.84-4.11-4.11S104.38,9.35,106.64,9.35L106.64,9.35z M78.8,9.35c2.27,0,4.11,1.84,4.11,4.11s-1.84,4.11-4.11,4.11c-2.27,0-4.11-1.84-4.11-4.11S76.53,9.35,78.8,9.35L78.8,9.35z M92.72,9.35c2.27,0,4.11,1.84,4.11,4.11s-1.84,4.11-4.11,4.11c-2.27,0-4.11-1.84-4.11-4.11S90.45,9.35,92.72,9.35L92.72,9.35z M78.3,45.46h6.65l2.39,12.65l3.5-12.65h6.6l3.53,12.67l2.41-12.67h6.62l-5,22.68h-6.87l-3.98-14.28L90.2,68.14h-6.86L78.3,45.46 L78.3,45.46z M46.58,45.46h6.65l2.39,12.65l3.5-12.65h6.6l3.53,12.67l2.41-12.67h6.62l-5,22.68h-6.87l-3.98-14.28l-3.95,14.28 h-6.86L46.58,45.46L46.58,45.46z"/></g></svg>

