<?xml version="1.0" encoding="UTF-8" standalone="no"?>
<svg
   xmlns:dc="http://purl.org/dc/elements/1.1/"
   xmlns:cc="http://creativecommons.org/ns#"
   xmlns:rdf="http://www.w3.org/1999/02/22-rdf-syntax-ns#"
   xmlns:svg="http://www.w3.org/2000/svg"
   xmlns="http://www.w3.org/2000/svg"
   id="svg8"
   version="1.1"
   viewBox="0 0 51.879999 51.880002"
   height="51.880001mm"
   width="51.880001mm">
  <title
     id="title4518">U+144A5 ANATOLIAN HIEROGLYPH A138</title>
  <defs
     id="defs2" />
  <metadata
     id="metadata5">
    <rdf:RDF>
      <cc:Work
         rdf:about="">
        <dc:format>image/svg+xml</dc:format>
        <dc:type
           rdf:resource="http://purl.org/dc/dcmitype/StillImage" />
        <dc:title>U+144A5 ANATOLIAN HIEROGLYPH A138 from Noto Sans font</dc:title>
        <cc:license
           rdf:resource="http://scripts.sil.org/OFL" />
      </cc:Work>
      <cc:License
         rdf:about="http://scripts.sil.org/OFL">
        <cc:permits
           rdf:resource="http://scripts.sil.org/pub/OFL/Reproduction" />
        <cc:permits
           rdf:resource="http://scripts.sil.org/pub/OFL/Distribution" />
        <cc:permits
           rdf:resource="http://scripts.sil.org/pub/OFL/Embedding" />
        <cc:permits
           rdf:resource="http://scripts.sil.org/pub/OFL/DerivativeWorks" />
        <cc:requires
           rdf:resource="http://scripts.sil.org/pub/OFL/Notice" />
        <cc:requires
           rdf:resource="http://scripts.sil.org/pub/OFL/Attribution" />
        <cc:requires
           rdf:resource="http://scripts.sil.org/pub/OFL/ShareAlike" />
        <cc:requires
           rdf:resource="http://scripts.sil.org/pub/OFL/DerivativeRenaming" />
        <cc:requires
           rdf:resource="http://scripts.sil.org/pub/OFL/BundlingWhenSelling" />
      </cc:License>
    </rdf:RDF>
  </metadata>
  <g
     transform="translate(-47.560265,-26.871213)"
     id="layer1">
    <g
       id="text4538"
       style="font-style:normal;font-weight:normal;font-size:10.58333302px;line-height:1.25;font-family:sans-serif;letter-spacing:0px;word-spacing:0px;fill:#000000;fill-opacity:1;stroke:none;stroke-width:0.26458332;image-rendering:auto">
      <path
         id="path814"
         style="font-size:42.33333206px;stroke-width:0.26458332"
         d="m 71.320099,66.590713 q -2.032,0 -3.852334,-0.804334 -1.777999,-0.762 -3.217333,-2.032 -1.439333,-1.227666 -2.413,-2.667 -3.090333,-0.973666 -6.095999,-3.090333 -3.005667,-2.116666 -6.180667,-4.699 V 52.32438 q 3.175,-2.582334 6.180667,-4.699 3.005666,-2.116667 6.095999,-3.090333 0.973667,-1.439334 2.413,-2.667 1.439334,-1.27 3.217333,-2.032 1.820334,-0.804334 3.852334,-0.804334 0.677333,0 1.058333,0.169334 0.423333,0.127 0.423333,0.592666 0,0.592667 -0.465666,1.058334 -0.465667,0.423333 -1.143,0.846666 -0.677334,0.423334 -1.312334,0.973667 -0.635,0.508 -0.973666,1.312333 l 1.820333,0.254 q 1.439333,-1.27 3.259667,-2.074333 1.862666,-0.846667 3.937,-0.846667 0.677333,0 1.058333,0.169334 0.423333,0.127 0.423333,0.592666 0,0.677334 -0.635,1.227667 -0.592666,0.550333 -1.397,1.100667 -0.804333,0.508 -1.439333,1.227666 0.465667,0.127 0.889,0.296334 0.423333,0.127 0.846667,0.254 1.269999,-0.846667 2.751666,-1.439334 1.524,-0.592666 3.090333,-0.592666 0.677334,0 1.058334,0.169333 0.423333,0.169333 0.423333,0.592667 0,0.889 -0.931333,1.439333 -0.931334,0.550333 -1.862667,1.312333 1.143,0.296333 2.201333,0.508 1.100667,0.211667 2.116667,0.211667 1.354667,0 2.582333,-0.635 1.227667,-0.677334 2.243667,-1.481667 1.058333,-0.846666 1.778,-1.397 0.296333,-0.211666 0.846666,-0.719666 0.550334,-0.550334 1.143,-1.016 0.592667,-0.465667 0.973667,-0.465667 0.635,0 0.973667,0.719667 0.381,0.677333 0.381,1.227666 0,0.973667 -0.550334,2.074333 -0.550333,1.100667 -1.312333,2.201334 -0.719667,1.058333 -1.27,2.032 -0.550333,0.931333 -0.550333,1.608666 v 0.550334 q 0,0.677333 0.550333,1.651 0.550333,0.931333 1.27,2.032 0.762,1.058333 1.312333,2.158999 0.550334,1.100667 0.550334,2.074334 0,0.592666 -0.381,1.27 -0.338667,0.677333 -0.973667,0.677333 -0.381,0 -0.973667,-0.465667 -0.592666,-0.465666 -1.143,-0.973666 -0.550333,-0.550334 -0.846666,-0.762 -0.719667,-0.550334 -1.778,-1.354667 -1.016,-0.846667 -2.243667,-1.481667 -1.227666,-0.677333 -2.582333,-0.677333 -1.016,0 -2.116667,0.211667 -1.058333,0.169333 -2.201333,0.508 0.931333,0.762 1.862667,1.312333 0.931333,0.550333 0.931333,1.439333 0,0.465667 -0.423333,0.635 -0.381,0.127 -1.058334,0.127 -1.566333,0 -3.090333,-0.592666 -1.481667,-0.635 -2.751666,-1.439334 -0.423334,0.127 -0.846667,0.296334 -0.423333,0.127 -0.889,0.254 0.635,0.677333 1.439333,1.227666 0.804334,0.550334 1.397,1.100667 0.635,0.550333 0.635,1.227667 0,0.423333 -0.423333,0.592666 -0.381,0.169334 -1.058333,0.169334 -2.074334,0 -3.937,-0.846667 -1.820334,-0.804333 -3.259667,-2.074333 l -1.820333,0.254 q 0.338666,0.804333 0.973666,1.312333 0.635,0.550333 1.312334,0.973667 0.677333,0.423333 1.143,0.846666 0.465666,0.465667 0.465666,1.058334 0,0.423333 -0.423333,0.592666 -0.381,0.169334 -1.058333,0.169334 z m -7.493,-22.563666 q 0.550333,-0.08467 1.143,-0.127 0.592667,-0.08467 1.185333,-0.08467 0.423334,0 0.804334,0 0.380999,0 0.804333,0.04233 0.508,-1.439333 1.524,-2.159 1.016,-0.762 1.947333,-1.566333 -0.127,-0.04233 -0.381,-0.04233 -1.735667,0 -3.640667,1.100666 -1.904999,1.100667 -3.386666,2.836334 z m 11.006666,1.227666 q 0.592667,-0.846666 1.439334,-1.524 0.846666,-0.719666 1.566333,-1.312333 -0.127,-0.04233 -0.381,-0.04233 -1.227667,0 -2.624667,0.635 -1.397,0.592666 -2.624666,1.566333 0.677333,0.169333 1.312333,0.338667 0.677333,0.169333 1.312333,0.338666 z m 21.209,16.298333 q 0.127,-0.254 0.127,-0.508 0,-0.804333 -0.592667,-1.820333 -0.550333,-1.058334 -1.354667,-2.159 -0.762,-1.143 -1.354666,-2.159 -0.550334,-1.058333 -0.550334,-1.820333 v -0.550334 q 0,-0.762 0.550334,-1.778 0.592666,-1.058333 1.354666,-2.159 0.804334,-1.143 1.354667,-2.159 0.592667,-1.058333 0.592667,-1.862666 0,-0.254 -0.127,-0.508 -1.100667,1.100667 -2.497667,2.370666 -1.397,1.227667 -3.090333,2.201334 -1.651,0.931333 -3.513667,1.016 v 6.307666 q 1.862667,0.127 3.513667,1.058334 1.693333,0.931333 3.090333,2.201333 1.397,1.27 2.497667,2.328333 z m -29.844999,-1.016 q 3.174999,0 5.799666,-0.635 2.667,-0.635 4.953,-1.481667 2.328333,-0.846666 4.445,-1.523999 2.159,-0.719667 4.275666,-0.889 v -6.392334 q -2.116666,-0.169333 -4.275666,-0.846666 -2.116667,-0.719667 -4.445,-1.566334 -2.286,-0.846666 -4.953,-1.481666 -2.624667,-0.635 -5.799666,-0.635 -2.878667,0 -5.418667,1.100667 -2.54,1.100666 -4.953,2.878666 -2.413,1.778 -4.868333,3.767667 2.413,1.989666 4.826,3.767666 2.413,1.735667 4.953,2.836333 2.582333,1.100667 5.461,1.100667 z M 80.972098,47.286713 q 0.592667,-0.592667 1.227667,-1.058333 0.635,-0.465667 1.227667,-0.973667 -0.127,-0.04233 -0.381,-0.04233 -0.973667,0 -2.032,0.381 -1.058334,0.381 -2.116667,1.016 0.550333,0.169333 1.058333,0.338666 0.508,0.169334 1.016,0.338667 z m -17.017999,9.440333 q 0.08467,-0.804333 0.635,-1.439333 0.550333,-0.635 0.550333,-1.354667 0,-0.550333 -0.423333,-0.973666 -0.423333,-0.423334 -0.846667,-0.931334 -0.381,-0.508 -0.381,-1.354666 0,-0.846667 0.423334,-1.481667 0.465666,-0.677333 0.550333,-1.439333 l 1.227667,0.127 q -0.08467,0.592666 -0.508,1.312333 -0.423334,0.719667 -0.423334,1.354667 0,0.635 0.381,1.143 0.423334,0.465666 0.846667,1.016 0.423333,0.508 0.423333,1.227666 0,0.550334 -0.296333,0.973667 -0.296333,0.423333 -0.592667,0.846667 -0.296333,0.423333 -0.296333,0.889 z m 8.466666,0 q 0.08467,-0.804333 0.635,-1.439333 0.550334,-0.635 0.550334,-1.354667 0,-0.550333 -0.423334,-0.973666 -0.423333,-0.423334 -0.846666,-0.931334 -0.381,-0.508 -0.381,-1.354666 0,-0.846667 0.423333,-1.481667 0.465667,-0.677333 0.550333,-1.439333 l 1.227667,0.127 q -0.08467,0.592666 -0.508,1.312333 -0.423333,0.719667 -0.423333,1.354667 0,0.635 0.381,1.143 0.423333,0.465666 0.846666,1.016 0.423334,0.508 0.423334,1.227666 0,0.550334 -0.296334,0.973667 -0.296333,0.423333 -0.592666,0.846667 -0.296334,0.423333 -0.296334,0.889 z m -4.233333,0 q 0.08467,-0.804333 0.635,-1.439333 0.550333,-0.635 0.550333,-1.354667 0,-0.550333 -0.423333,-0.973666 -0.423333,-0.423334 -0.846667,-0.931334 -0.381,-0.508 -0.381,-1.354666 0,-0.846667 0.423334,-1.481667 0.465666,-0.677333 0.550333,-1.439333 l 1.227667,0.127 q -0.08467,0.592666 -0.508,1.312333 -0.423334,0.719667 -0.423334,1.354667 0,0.635 0.381,1.143 0.423334,0.465666 0.846667,1.016 0.423333,0.508 0.423333,1.227666 0,0.550334 -0.296333,0.973667 -0.296333,0.423333 -0.592667,0.846667 -0.296333,0.423333 -0.296333,0.889 z m -10.879666,-3.429 q -0.804334,0 -1.354667,-0.508 -0.508,-0.550333 -0.508,-1.354666 0,-0.762 0.508,-1.312334 0.550333,-0.592666 1.354667,-0.592666 0.762,0 1.312333,0.592666 0.592667,0.550334 0.592667,1.312334 0,0.804333 -0.592667,1.354666 -0.550333,0.508 -1.312333,0.508 z m 25.738666,7.112 q 0.254,0 0.381,-0.04233 -0.592667,-0.508 -1.227667,-0.973667 -0.635,-0.465667 -1.227667,-1.058333 -0.508,0.169333 -1.016,0.338666 -0.508,0.127 -1.058333,0.338667 1.058333,0.635 2.116667,1.016 1.058333,0.381 2.032,0.381 z m -5.588,2.836333 q 0.254,0 0.381,-0.04233 -0.719667,-0.592667 -1.566333,-1.312333 -0.846667,-0.719667 -1.439334,-1.524 -0.635,0.211666 -1.312333,0.381 -0.635,0.127 -1.312333,0.296333 1.227666,0.973667 2.624666,1.608667 1.397,0.592666 2.624667,0.592666 z m -6.604,2.286 q 0.254,0 0.381,-0.04233 -0.931333,-0.804333 -1.947333,-1.566333 -1.016,-0.719667 -1.524,-2.159 -0.423334,0.04233 -0.804333,0.04233 -0.381,0 -0.804334,0 -0.592666,0 -1.185333,-0.04233 -0.592667,-0.08467 -1.143,-0.169334 1.481667,1.693334 3.386666,2.794 1.905,1.143 3.640667,1.143 z" />
    </g>
  </g>
</svg>
