<?xml version='1.0' encoding='utf-8'?>
<!DOCTYPE svg PUBLIC '-//W3C//DTD SVG 1.1//EN' 'http://www.w3.org/Graphics/SVG/1.1/DTD/svg11.dtd'>
<svg fill="#000000" height="800px" width="800px" version="1.1" xmlns="http://www.w3.org/2000/svg" viewBox="0 0 512 512" xmlns:xlink="http://www.w3.org/1999/xlink" enable-background="new 0 0 512 512">
  <g>
    <g>
      <path d="m416.6,252.4l-54.9,66.7c-8.3,8.3-20.6,10.9-31.5,0l-54.9-66.7c-7.2-8.7-5.9-21.6 2.8-28.7 8.7-7.2 21.6-5.9 28.7,2.8l18.7,22.8v-127.4c0-11.3 9.1-20.4 20.4-20.4 11.3,0 20.4,9.1 20.4,20.4v127.4l18.7-22.8c7.2-8.7 20-10 28.7-2.8 8.9,7.2 10.1,20 2.9,28.7zm-27.3,158.2h-266.6c-11.3,0-20.4-9.1-20.4-20.4 0-11.3 9.1-20.4 20.4-20.4h266.7c11.3,0 20.4,9.1 20.4,20.4 5.68434e-14,11.2-9.2,20.4-20.5,20.4zm-293.9-158.2c-7.2-8.7-5.9-21.6 2.8-28.7 8.7-7.2 21.6-5.9 28.7,2.8l18.7,22.8v-127.4c0-11.3 9.1-20.4 20.4-20.4s20.4,9.1 20.4,20.4v127.4l18.7-22.8c7.2-8.7 20-10 28.7-2.8 8.7,7.2 10,20 2.8,28.7l-54.9,66.7c-9,10.9-25.9,9.2-31.5,0l-54.8-66.7zm318.3-241.4h-315.4c-48.1,0-87.3,39.2-87.3,87.3v315.4c0,48.1 39.2,87.3 87.3,87.3h315.4c48.1,0 87.3-39.2 87.3-87.3v-315.4c0-48.1-39.2-87.3-87.3-87.3z"/>
    </g>
  </g>
</svg>
